<svg xmlns="http://www.w3.org/2000/svg" width="62" height="50" viewBox="0 0 62 50">
  <path id="icon-quotemark-reviews" d="M25.836-114.081l6.154-22.447H18.144L10.032-116.2c-3.217,7.765-3.776,10.447-3.776,14.118,0,8.047,5.734,13.553,13.566,13.553,7.692,0,13.427-5.365,13.427-13.553C33.249-107.869,30.452-112.1,25.836-114.081Zm33.007,0L65-136.528H51.151L43.039-116.2c-3.217,7.765-3.776,10.447-3.776,14.118,0,8.047,5.734,13.553,13.566,13.553,7.692,0,13.427-5.365,13.427-13.553C66.256-107.869,63.459-112.1,58.843-114.081Z" transform="translate(-5.256 137.528)" fill="none" stroke="#000" stroke-width="2"/>
</svg>
