<svg id="icon-only-tw" xmlns="http://www.w3.org/2000/svg" width="14.769" height="12.003" viewBox="0 0 14.769 12.003">
  <path id="icon-tw" d="M14.769,3.669a6.05,6.05,0,0,1-1.74.477A3.035,3.035,0,0,0,14.361,2.47a6.07,6.07,0,0,1-1.924.735A3.032,3.032,0,0,0,7.273,5.968,8.6,8.6,0,0,1,1.028,2.8a3.034,3.034,0,0,0,.937,4.046A3.017,3.017,0,0,1,.594,6.469a3.032,3.032,0,0,0,2.43,3.009,3.037,3.037,0,0,1-1.369.052,3.032,3.032,0,0,0,2.831,2.1A6.093,6.093,0,0,1,0,12.889a8.578,8.578,0,0,0,4.645,1.361,8.57,8.57,0,0,0,8.612-9.013A6.169,6.169,0,0,0,14.769,3.669Z" transform="translate(0 -2.248)" fill="#0f161c"/>
</svg>
