<svg xmlns="http://www.w3.org/2000/svg" width="16" height="14" viewBox="0 0 17.5 16.5">
  <g id="Group_163964" data-name="Group 163964" transform="translate(-245.576 -1010.916)">
    <path id="Path_84614" data-name="Path 84614" d="M259.543,1013.03h2.087a.691.691,0,0,1,.7.682v12.273a.69.69,0,0,1-.7.681H247.022a.69.69,0,0,1-.7-.681v-12.273a.691.691,0,0,1,.7-.682h2.087" fill="none" stroke="#4f5d73" stroke-linecap="round" stroke-linejoin="round" stroke-width="1.5"/>
    <line id="Line_635" data-name="Line 635" y2="2.727" transform="translate(250.5 1011.666)" fill="none" stroke="#4f5d73" stroke-linecap="round" stroke-linejoin="round" stroke-width="1.5"/>
    <line id="Line_636" data-name="Line 636" y2="2.727" transform="translate(258.152 1011.666)" fill="none" stroke="#4f5d73" stroke-linecap="round" stroke-linejoin="round" stroke-width="1.5"/>
    <line id="Line_637" data-name="Line 637" x2="0.696" transform="translate(253.978 1017.121)" fill="none" stroke="#4f5d73" stroke-linecap="round" stroke-linejoin="round" stroke-width="1.5"/>
    <line id="Line_638" data-name="Line 638" x2="0.696" transform="translate(257.457 1017.121)" fill="none" stroke="#4f5d73" stroke-linecap="round" stroke-linejoin="round" stroke-width="1.5"/>
    <line id="Line_639" data-name="Line 639" x2="0.696" transform="translate(250.5 1020.53)" fill="none" stroke="#4f5d73" stroke-linecap="round" stroke-linejoin="round" stroke-width="1.5"/>
    <line id="Line_640" data-name="Line 640" x2="0.696" transform="translate(253.978 1020.53)" fill="none" stroke="#4f5d73" stroke-linecap="round" stroke-linejoin="round" stroke-width="1.5"/>
    <line id="Line_641" data-name="Line 641" x2="0.696" transform="translate(257.457 1020.53)" fill="none" stroke="#4f5d73" stroke-linecap="round" stroke-linejoin="round" stroke-width="1.5"/>
    <line id="Line_642" data-name="Line 642" x2="0.696" transform="translate(250.5 1023.939)" fill="none" stroke="#4f5d73" stroke-linecap="round" stroke-linejoin="round" stroke-width="1.5"/>
    <line id="Line_643" data-name="Line 643" x2="0.696" transform="translate(253.978 1023.939)" fill="none" stroke="#4f5d73" stroke-linecap="round" stroke-linejoin="round" stroke-width="1.5"/>
    <line id="Line_644" data-name="Line 644" x2="4.87" transform="translate(251.891 1013.03)" fill="none" stroke="#4f5d73" stroke-linecap="round" stroke-linejoin="round" stroke-width="1.5"/>
  </g>
</svg>
