<svg id="icon-circle-TW" xmlns="http://www.w3.org/2000/svg" width="36" height="36" viewBox="0 0 36 36">
  <g id="icon-sm-tw" transform="translate(-914 -0.287)">
    <circle id="Ellipse_12" data-name="Ellipse 12" cx="18" cy="18" r="18" transform="translate(914 0.287)" fill="#0f161c"/>
    <g id="icon-tw" transform="translate(923.54 10.786)">
      <path id="icon-tw-2" data-name="icon-tw" d="M18.459,4.024a7.561,7.561,0,0,1-2.175.6,3.793,3.793,0,0,0,1.665-2.1,7.586,7.586,0,0,1-2.405.919A3.79,3.79,0,0,0,9.09,6.9,10.751,10.751,0,0,1,1.285,2.941,3.792,3.792,0,0,0,2.457,8,3.771,3.771,0,0,1,.742,7.524,3.79,3.79,0,0,0,3.78,11.285a3.8,3.8,0,0,1-1.711.065,3.79,3.79,0,0,0,3.538,2.63A7.615,7.615,0,0,1,0,15.548a10.721,10.721,0,0,0,5.805,1.7A10.71,10.71,0,0,0,16.57,5.984,7.71,7.71,0,0,0,18.459,4.024Z" transform="translate(0 -2.248)" fill="#fff"/>
    </g>
  </g>
</svg>
