<svg width="212" height="209" viewBox="0 0 212 209" fill="none" xmlns="http://www.w3.org/2000/svg">
<ellipse cx="7.06451" cy="6.95973" rx="7.06451" ry="6.95973" fill="#B8D0FC"/>
<ellipse cx="7.06451" cy="118.315" rx="7.06451" ry="6.95973" fill="#B8D0FC"/>
<ellipse cx="7.06451" cy="62.6375" rx="7.06451" ry="6.95973" fill="#B8D0FC"/>
<ellipse cx="7.06451" cy="173.993" rx="7.06451" ry="6.95973" fill="#B8D0FC"/>
<ellipse cx="120.097" cy="6.95973" rx="7.06451" ry="6.95973" fill="#B8D0FC"/>
<ellipse cx="120.097" cy="118.315" rx="7.06451" ry="6.95973" fill="#B8D0FC"/>
<ellipse cx="120.097" cy="62.6375" rx="7.06451" ry="6.95973" fill="#B8D0FC"/>
<ellipse cx="120.097" cy="173.993" rx="7.06451" ry="6.95973" fill="#B8D0FC"/>
<ellipse cx="204.871" cy="34.7986" rx="7.06451" ry="6.95973" transform="rotate(-180 204.871 34.7986)" fill="#B8D0FC"/>
<ellipse cx="204.871" cy="146.154" rx="7.06451" ry="6.95973" transform="rotate(-180 204.871 146.154)" fill="#B8D0FC"/>
<ellipse cx="204.871" cy="90.4763" rx="7.06451" ry="6.95973" transform="rotate(-180 204.871 90.4763)" fill="#B8D0FC"/>
<ellipse cx="204.871" cy="201.832" rx="7.06451" ry="6.95973" transform="rotate(-180 204.871 201.832)" fill="#B8D0FC"/>
<ellipse cx="91.8388" cy="34.7986" rx="7.06451" ry="6.95973" transform="rotate(-180 91.8388 34.7986)" fill="#B8D0FC"/>
<ellipse cx="91.8388" cy="146.154" rx="7.06451" ry="6.95973" transform="rotate(-180 91.8388 146.154)" fill="#B8D0FC"/>
<ellipse cx="91.8388" cy="90.4763" rx="7.06451" ry="6.95973" transform="rotate(-180 91.8388 90.4763)" fill="#B8D0FC"/>
<ellipse cx="91.8388" cy="201.832" rx="7.06451" ry="6.95973" transform="rotate(-180 91.8388 201.832)" fill="#B8D0FC"/>
<ellipse cx="63.5806" cy="6.95973" rx="7.06451" ry="6.95973" fill="#B8D0FC"/>
<ellipse cx="63.5806" cy="118.315" rx="7.06451" ry="6.95973" fill="#B8D0FC"/>
<ellipse cx="63.5806" cy="62.6375" rx="7.06451" ry="6.95973" fill="#B8D0FC"/>
<ellipse cx="63.5806" cy="173.993" rx="7.06451" ry="6.95973" fill="#B8D0FC"/>
<ellipse cx="176.613" cy="6.95973" rx="7.06451" ry="6.95973" fill="#B8D0FC"/>
<ellipse cx="176.613" cy="118.315" rx="7.06451" ry="6.95973" fill="#B8D0FC"/>
<ellipse cx="176.613" cy="62.6375" rx="7.06451" ry="6.95973" fill="#B8D0FC"/>
<ellipse cx="176.613" cy="173.993" rx="7.06451" ry="6.95973" fill="#B8D0FC"/>
<ellipse cx="148.355" cy="34.7986" rx="7.06451" ry="6.95973" transform="rotate(-180 148.355 34.7986)" fill="#B8D0FC"/>
<ellipse cx="148.355" cy="146.154" rx="7.06451" ry="6.95973" transform="rotate(-180 148.355 146.154)" fill="#B8D0FC"/>
<ellipse cx="148.355" cy="90.4763" rx="7.06451" ry="6.95973" transform="rotate(-180 148.355 90.4763)" fill="#B8D0FC"/>
<ellipse cx="148.355" cy="201.832" rx="7.06451" ry="6.95973" transform="rotate(-180 148.355 201.832)" fill="#B8D0FC"/>
<ellipse cx="35.3227" cy="34.7986" rx="7.06451" ry="6.95973" transform="rotate(-180 35.3227 34.7986)" fill="#B8D0FC"/>
<ellipse cx="35.3227" cy="146.154" rx="7.06451" ry="6.95973" transform="rotate(-180 35.3227 146.154)" fill="#B8D0FC"/>
<ellipse cx="35.3227" cy="90.4763" rx="7.06451" ry="6.95973" transform="rotate(-180 35.3227 90.4763)" fill="#B8D0FC"/>
<ellipse cx="35.3227" cy="201.832" rx="7.06451" ry="6.95973" transform="rotate(-180 35.3227 201.832)" fill="#B8D0FC"/>
<ellipse cx="35.3226" cy="6.95973" rx="7.06451" ry="6.95973" fill="#D7B4F3"/>
<ellipse cx="35.3226" cy="118.315" rx="7.06451" ry="6.95973" fill="#D7B4F3"/>
<ellipse cx="35.3226" cy="62.6375" rx="7.06451" ry="6.95973" fill="#D7B4F3"/>
<ellipse cx="35.3226" cy="173.993" rx="7.06451" ry="6.95973" fill="#D7B4F3"/>
<ellipse cx="148.355" cy="6.95973" rx="7.06451" ry="6.95973" fill="#D7B4F3"/>
<ellipse cx="148.355" cy="118.315" rx="7.06451" ry="6.95973" fill="#D7B4F3"/>
<ellipse cx="148.355" cy="62.6375" rx="7.06451" ry="6.95973" fill="#D7B4F3"/>
<ellipse cx="148.355" cy="173.993" rx="7.06451" ry="6.95973" fill="#D7B4F3"/>
<ellipse cx="176.613" cy="34.7986" rx="7.06451" ry="6.95973" transform="rotate(-180 176.613 34.7986)" fill="#D7B4F3"/>
<ellipse cx="176.613" cy="146.154" rx="7.06451" ry="6.95973" transform="rotate(-180 176.613 146.154)" fill="#D7B4F3"/>
<ellipse cx="176.613" cy="90.4763" rx="7.06451" ry="6.95973" transform="rotate(-180 176.613 90.4763)" fill="#D7B4F3"/>
<ellipse cx="176.613" cy="201.832" rx="7.06451" ry="6.95973" transform="rotate(-180 176.613 201.832)" fill="#D7B4F3"/>
<ellipse cx="63.5807" cy="34.7986" rx="7.06451" ry="6.95973" transform="rotate(-180 63.5807 34.7986)" fill="#D7B4F3"/>
<ellipse cx="63.5807" cy="146.154" rx="7.06451" ry="6.95973" transform="rotate(-180 63.5807 146.154)" fill="#D7B4F3"/>
<ellipse cx="63.5807" cy="90.4763" rx="7.06451" ry="6.95973" transform="rotate(-180 63.5807 90.4763)" fill="#D7B4F3"/>
<ellipse cx="63.5807" cy="201.832" rx="7.06451" ry="6.95973" transform="rotate(-180 63.5807 201.832)" fill="#D7B4F3"/>
<ellipse cx="91.8384" cy="6.95973" rx="7.06451" ry="6.95973" fill="#D7B4F3"/>
<ellipse cx="91.8384" cy="118.315" rx="7.06451" ry="6.95973" fill="#D7B4F3"/>
<ellipse cx="91.8384" cy="62.6375" rx="7.06451" ry="6.95973" fill="#D7B4F3"/>
<ellipse cx="91.8384" cy="173.993" rx="7.06451" ry="6.95973" fill="#D7B4F3"/>
<ellipse cx="204.871" cy="6.95973" rx="7.06451" ry="6.95973" fill="#D7B4F3"/>
<ellipse cx="204.871" cy="118.315" rx="7.06451" ry="6.95973" fill="#D7B4F3"/>
<ellipse cx="204.871" cy="62.6375" rx="7.06451" ry="6.95973" fill="#D7B4F3"/>
<ellipse cx="204.871" cy="173.993" rx="7.06451" ry="6.95973" fill="#D7B4F3"/>
<ellipse cx="120.097" cy="34.7986" rx="7.06451" ry="6.95973" transform="rotate(-180 120.097 34.7986)" fill="#D7B4F3"/>
<ellipse cx="120.097" cy="146.154" rx="7.06451" ry="6.95973" transform="rotate(-180 120.097 146.154)" fill="#D7B4F3"/>
<ellipse cx="120.097" cy="90.4763" rx="7.06451" ry="6.95973" transform="rotate(-180 120.097 90.4763)" fill="#D7B4F3"/>
<ellipse cx="120.097" cy="201.832" rx="7.06451" ry="6.95973" transform="rotate(-180 120.097 201.832)" fill="#D7B4F3"/>
<ellipse cx="7.06464" cy="34.7986" rx="7.06451" ry="6.95973" transform="rotate(-180 7.06464 34.7986)" fill="#D7B4F3"/>
<ellipse cx="7.06464" cy="146.154" rx="7.06451" ry="6.95973" transform="rotate(-180 7.06464 146.154)" fill="#D7B4F3"/>
<ellipse cx="7.06464" cy="90.4763" rx="7.06451" ry="6.95973" transform="rotate(-180 7.06464 90.4763)" fill="#D7B4F3"/>
<ellipse cx="7.06464" cy="201.832" rx="7.06451" ry="6.95973" transform="rotate(-180 7.06464 201.832)" fill="#D7B4F3"/>
</svg>
