<svg width="138" height="160" viewBox="0 0 138 160" fill="none" xmlns="http://www.w3.org/2000/svg">
<g opacity="0.5">
<path opacity="0.5" d="M4 77.5994C6.20914 77.5994 8 75.989 8 74.0026C8 72.0161 6.20914 70.4058 4 70.4058C1.79086 70.4058 0 72.0161 0 74.0026C0 75.989 1.79086 77.5994 4 77.5994Z" fill="#B8D0FC"/>
<path opacity="0.5" d="M108 77.5994C110.209 77.5994 112 75.989 112 74.0026C112 72.0161 110.209 70.4058 108 70.4058C105.791 70.4058 104 72.0161 104 74.0026C104 75.989 105.791 77.5994 108 77.5994Z" fill="#B8D0FC"/>
<path opacity="0.5" d="M4 30.8418C6.20914 30.8418 8 29.2315 8 27.245C8 25.2585 6.20914 23.6482 4 23.6482C1.79086 23.6482 0 25.2585 0 27.245C0 29.2315 1.79086 30.8418 4 30.8418Z" fill="#B8D0FC"/>
<path opacity="0.5" d="M4 124.357C6.20914 124.357 8 122.746 8 120.76C8 118.774 6.20914 117.163 4 117.163C1.79086 117.163 0 118.774 0 120.76C0 122.746 1.79086 124.357 4 124.357Z" fill="#B8D0FC"/>
<path opacity="0.5" d="M108 30.8418C110.209 30.8418 112 29.2315 112 27.245C112 25.2585 110.209 23.6482 108 23.6482C105.791 23.6482 104 25.2585 104 27.245C104 29.2315 105.791 30.8418 108 30.8418Z" fill="#B8D0FC"/>
<path opacity="0.5" d="M108 124.357C110.209 124.357 112 122.746 112 120.76C112 118.774 110.209 117.163 108 117.163C105.791 117.163 104 118.774 104 120.76C104 122.746 105.791 124.357 108 124.357Z" fill="#B8D0FC"/>
<path opacity="0.5" d="M55.9999 77.5994C58.209 77.5994 59.9999 75.989 59.9999 74.0026C59.9999 72.0161 58.209 70.4058 55.9999 70.4058C53.7907 70.4058 51.9999 72.0161 51.9999 74.0026C51.9999 75.989 53.7907 77.5994 55.9999 77.5994Z" fill="#B8D0FC"/>
<path opacity="0.5" d="M55.9999 30.8418C58.209 30.8418 59.9999 29.2315 59.9999 27.245C59.9999 25.2585 58.209 23.6482 55.9999 23.6482C53.7907 23.6482 51.9999 25.2585 51.9999 27.245C51.9999 29.2315 53.7907 30.8418 55.9999 30.8418Z" fill="#B8D0FC"/>
<path opacity="0.5" d="M55.9999 124.357C58.209 124.357 59.9999 122.746 59.9999 120.76C59.9999 118.774 58.209 117.163 55.9999 117.163C53.7907 117.163 51.9999 118.774 51.9999 120.76C51.9999 122.746 53.7907 124.357 55.9999 124.357Z" fill="#B8D0FC"/>
<path opacity="0.5" d="M4 7.46289C6.20914 7.46289 8 5.8526 8 3.86621C8 1.87982 6.20914 0.269531 4 0.269531C1.79086 0.269531 0 1.87982 0 3.86621C0 5.8526 1.79086 7.46289 4 7.46289Z" fill="#B8D0FC"/>
<path opacity="0.5" d="M4 100.978C6.20914 100.978 8 99.3677 8 97.3812C8 95.3948 6.20914 93.7844 4 93.7844C1.79086 93.7844 0 95.3948 0 97.3812C0 99.3677 1.79086 100.978 4 100.978Z" fill="#B8D0FC"/>
<path opacity="0.5" d="M108 7.46289C110.209 7.46289 112 5.8526 112 3.86621C112 1.87982 110.209 0.269531 108 0.269531C105.791 0.269531 104 1.87982 104 3.86621C104 5.8526 105.791 7.46289 108 7.46289Z" fill="#B8D0FC"/>
<path opacity="0.5" d="M108 100.978C110.209 100.978 112 99.3677 112 97.3812C112 95.3948 110.209 93.7844 108 93.7844C105.791 93.7844 104 95.3948 104 97.3812C104 99.3677 105.791 100.978 108 100.978Z" fill="#B8D0FC"/>
<path opacity="0.5" d="M4 54.2205C6.20914 54.2205 8 52.6102 8 50.6238C8 48.6374 6.20914 47.0271 4 47.0271C1.79086 47.0271 0 48.6374 0 50.6238C0 52.6102 1.79086 54.2205 4 54.2205Z" fill="#B8D0FC"/>
<path opacity="0.5" d="M4 147.735C6.20914 147.735 8 146.125 8 144.139C8 142.152 6.20914 140.542 4 140.542C1.79086 140.542 0 142.152 0 144.139C0 146.125 1.79086 147.735 4 147.735Z" fill="#B8D0FC"/>
<path opacity="0.5" d="M108 54.2205C110.209 54.2205 112 52.6102 112 50.6238C112 48.6374 110.209 47.0271 108 47.0271C105.791 47.0271 104 48.6374 104 50.6238C104 52.6102 105.791 54.2205 108 54.2205Z" fill="#B8D0FC"/>
<path opacity="0.5" d="M108 147.735C110.209 147.735 112 146.125 112 144.139C112 142.152 110.209 140.542 108 140.542C105.791 140.542 104 142.152 104 144.139C104 146.125 105.791 147.735 108 147.735Z" fill="#B8D0FC"/>
<path opacity="0.5" d="M55.9999 7.46289C58.209 7.46289 59.9999 5.8526 59.9999 3.86621C59.9999 1.87982 58.209 0.269531 55.9999 0.269531C53.7907 0.269531 51.9999 1.87982 51.9999 3.86621C51.9999 5.8526 53.7907 7.46289 55.9999 7.46289Z" fill="#B8D0FC"/>
<path opacity="0.5" d="M55.9999 100.978C58.209 100.978 59.9999 99.3677 59.9999 97.3812C59.9999 95.3948 58.209 93.7844 55.9999 93.7844C53.7907 93.7844 51.9999 95.3948 51.9999 97.3812C51.9999 99.3677 53.7907 100.978 55.9999 100.978Z" fill="#B8D0FC"/>
<path opacity="0.5" d="M55.9999 54.2205C58.209 54.2205 59.9999 52.6102 59.9999 50.6238C59.9999 48.6374 58.209 47.0271 55.9999 47.0271C53.7907 47.0271 51.9999 48.6374 51.9999 50.6238C51.9999 52.6102 53.7907 54.2205 55.9999 54.2205Z" fill="#B8D0FC"/>
<path opacity="0.5" d="M55.9999 147.735C58.209 147.735 59.9999 146.125 59.9999 144.139C59.9999 142.152 58.209 140.542 55.9999 140.542C53.7907 140.542 51.9999 142.152 51.9999 144.139C51.9999 146.125 53.7907 147.735 55.9999 147.735Z" fill="#B8D0FC"/>
<path opacity="0.5" d="M30 77.5994C32.2091 77.5994 34 75.989 34 74.0026C34 72.0161 32.2091 70.4058 30 70.4058C27.7909 70.4058 26 72.0161 26 74.0026C26 75.989 27.7909 77.5994 30 77.5994Z" fill="#B8D0FC"/>
<path opacity="0.5" d="M134 77.5994C136.209 77.5994 138 75.989 138 74.0026C138 72.0161 136.209 70.4058 134 70.4058C131.791 70.4058 130 72.0161 130 74.0026C130 75.989 131.791 77.5994 134 77.5994Z" fill="#B8D0FC"/>
<path opacity="0.5" d="M30 30.8418C32.2091 30.8418 34 29.2315 34 27.245C34 25.2585 32.2091 23.6482 30 23.6482C27.7909 23.6482 26 25.2585 26 27.245C26 29.2315 27.7909 30.8418 30 30.8418Z" fill="#B8D0FC"/>
<path opacity="0.5" d="M30 124.357C32.2091 124.357 34 122.746 34 120.76C34 118.774 32.2091 117.163 30 117.163C27.7909 117.163 26 118.774 26 120.76C26 122.746 27.7909 124.357 30 124.357Z" fill="#B8D0FC"/>
<path opacity="0.5" d="M134 30.8418C136.209 30.8418 138 29.2315 138 27.245C138 25.2585 136.209 23.6482 134 23.6482C131.791 23.6482 130 25.2585 130 27.245C130 29.2315 131.791 30.8418 134 30.8418Z" fill="#B8D0FC"/>
<path opacity="0.5" d="M134 124.357C136.209 124.357 138 122.746 138 120.76C138 118.774 136.209 117.163 134 117.163C131.791 117.163 130 118.774 130 120.76C130 122.746 131.791 124.357 134 124.357Z" fill="#B8D0FC"/>
<path opacity="0.5" d="M81.9998 77.5994C84.2089 77.5994 85.9998 75.989 85.9998 74.0026C85.9998 72.0161 84.2089 70.4058 81.9998 70.4058C79.7906 70.4058 77.9998 72.0161 77.9998 74.0026C77.9998 75.989 79.7906 77.5994 81.9998 77.5994Z" fill="#B8D0FC"/>
<path opacity="0.5" d="M81.9998 30.8418C84.2089 30.8418 85.9998 29.2315 85.9998 27.245C85.9998 25.2585 84.2089 23.6482 81.9998 23.6482C79.7906 23.6482 77.9998 25.2585 77.9998 27.245C77.9998 29.2315 79.7906 30.8418 81.9998 30.8418Z" fill="#B8D0FC"/>
<path opacity="0.5" d="M81.9998 124.357C84.2089 124.357 85.9998 122.746 85.9998 120.76C85.9998 118.774 84.2089 117.163 81.9998 117.163C79.7906 117.163 77.9998 118.774 77.9998 120.76C77.9998 122.746 79.7906 124.357 81.9998 124.357Z" fill="#B8D0FC"/>
<path opacity="0.5" d="M30 7.46289C32.2091 7.46289 34 5.8526 34 3.86621C34 1.87982 32.2091 0.269531 30 0.269531C27.7909 0.269531 26 1.87982 26 3.86621C26 5.8526 27.7909 7.46289 30 7.46289Z" fill="#B8D0FC"/>
<path opacity="0.5" d="M30 100.978C32.2091 100.978 34 99.3677 34 97.3812C34 95.3948 32.2091 93.7844 30 93.7844C27.7909 93.7844 26 95.3948 26 97.3812C26 99.3677 27.7909 100.978 30 100.978Z" fill="#B8D0FC"/>
<path opacity="0.5" d="M134 7.46289C136.209 7.46289 138 5.8526 138 3.86621C138 1.87982 136.209 0.269531 134 0.269531C131.791 0.269531 130 1.87982 130 3.86621C130 5.8526 131.791 7.46289 134 7.46289Z" fill="#B8D0FC"/>
<path opacity="0.5" d="M134 100.978C136.209 100.978 138 99.3677 138 97.3812C138 95.3948 136.209 93.7844 134 93.7844C131.791 93.7844 130 95.3948 130 97.3812C130 99.3677 131.791 100.978 134 100.978Z" fill="#B8D0FC"/>
<path opacity="0.5" d="M30 54.2205C32.2091 54.2205 34 52.6102 34 50.6238C34 48.6374 32.2091 47.0271 30 47.0271C27.7909 47.0271 26 48.6374 26 50.6238C26 52.6102 27.7909 54.2205 30 54.2205Z" fill="#B8D0FC"/>
<path opacity="0.5" d="M30 147.735C32.2091 147.735 34 146.125 34 144.139C34 142.152 32.2091 140.542 30 140.542C27.7909 140.542 26 142.152 26 144.139C26 146.125 27.7909 147.735 30 147.735Z" fill="#B8D0FC"/>
<path opacity="0.5" d="M134 54.2205C136.209 54.2205 138 52.6102 138 50.6238C138 48.6374 136.209 47.0271 134 47.0271C131.791 47.0271 130 48.6374 130 50.6238C130 52.6102 131.791 54.2205 134 54.2205Z" fill="#B8D0FC"/>
<path opacity="0.5" d="M134 147.735C136.209 147.735 138 146.125 138 144.139C138 142.152 136.209 140.542 134 140.542C131.791 140.542 130 142.152 130 144.139C130 146.125 131.791 147.735 134 147.735Z" fill="#B8D0FC"/>
<path opacity="0.5" d="M81.9998 7.46289C84.209 7.46289 85.9998 5.8526 85.9998 3.86621C85.9998 1.87982 84.209 0.269531 81.9998 0.269531C79.7907 0.269531 77.9998 1.87982 77.9998 3.86621C77.9998 5.8526 79.7907 7.46289 81.9998 7.46289Z" fill="#B8D0FC"/>
<path opacity="0.5" d="M81.9998 100.978C84.2089 100.978 85.9998 99.3677 85.9998 97.3812C85.9998 95.3948 84.2089 93.7844 81.9998 93.7844C79.7906 93.7844 77.9998 95.3948 77.9998 97.3812C77.9998 99.3677 79.7906 100.978 81.9998 100.978Z" fill="#B8D0FC"/>
<path opacity="0.5" d="M81.9998 54.2205C84.2089 54.2205 85.9998 52.6102 85.9998 50.6238C85.9998 48.6374 84.2089 47.0271 81.9998 47.0271C79.7906 47.0271 77.9998 48.6374 77.9998 50.6238C77.9998 52.6102 79.7906 54.2205 81.9998 54.2205Z" fill="#B8D0FC"/>
<path opacity="0.5" d="M81.9998 147.735C84.2089 147.735 85.9998 146.125 85.9998 144.139C85.9998 142.152 84.2089 140.542 81.9998 140.542C79.7906 140.542 77.9998 142.152 77.9998 144.139C77.9998 146.125 79.7906 147.735 81.9998 147.735Z" fill="#B8D0FC"/>
<path opacity="0.5" d="M17 89.2886C19.2091 89.2886 21 87.6783 21 85.6919C21 83.7055 19.2091 82.0952 17 82.0952C14.7909 82.0952 13 83.7055 13 85.6919C13 87.6783 14.7909 89.2886 17 89.2886Z" fill="#B8D0FC"/>
<path opacity="0.5" d="M121 89.2886C123.209 89.2886 125 87.6783 125 85.6919C125 83.7055 123.209 82.0952 121 82.0952C118.791 82.0952 117 83.7055 117 85.6919C117 87.6783 118.791 89.2886 121 89.2886Z" fill="#B8D0FC"/>
<path opacity="0.5" d="M17 42.531C19.2091 42.531 21 40.9207 21 38.9343C21 36.9479 19.2091 35.3376 17 35.3376C14.7909 35.3376 13 36.9479 13 38.9343C13 40.9207 14.7909 42.531 17 42.531Z" fill="#B8D0FC"/>
<path opacity="0.5" d="M17 136.046C19.2091 136.046 21 134.436 21 132.449C21 130.463 19.2091 128.853 17 128.853C14.7909 128.853 13 130.463 13 132.449C13 134.436 14.7909 136.046 17 136.046Z" fill="#B8D0FC"/>
<path opacity="0.5" d="M121 42.531C123.209 42.531 125 40.9207 125 38.9343C125 36.9479 123.209 35.3376 121 35.3376C118.791 35.3376 117 36.9479 117 38.9343C117 40.9207 118.791 42.531 121 42.531Z" fill="#B8D0FC"/>
<path opacity="0.5" d="M121 136.046C123.209 136.046 125 134.436 125 132.449C125 130.463 123.209 128.853 121 128.853C118.791 128.853 117 130.463 117 132.449C117 134.436 118.791 136.046 121 136.046Z" fill="#B8D0FC"/>
<path opacity="0.5" d="M68.9999 89.2886C71.209 89.2886 72.9999 87.6783 72.9999 85.6919C72.9999 83.7055 71.209 82.0952 68.9999 82.0952C66.7907 82.0952 64.9999 83.7055 64.9999 85.6919C64.9999 87.6783 66.7907 89.2886 68.9999 89.2886Z" fill="#B8D0FC"/>
<path opacity="0.5" d="M68.9999 42.531C71.209 42.531 72.9999 40.9207 72.9999 38.9343C72.9999 36.9479 71.209 35.3376 68.9999 35.3376C66.7907 35.3376 64.9999 36.9479 64.9999 38.9343C64.9999 40.9207 66.7907 42.531 68.9999 42.531Z" fill="#B8D0FC"/>
<path opacity="0.5" d="M68.9999 136.046C71.209 136.046 72.9999 134.436 72.9999 132.449C72.9999 130.463 71.209 128.853 68.9999 128.853C66.7907 128.853 64.9999 130.463 64.9999 132.449C64.9999 134.436 66.7907 136.046 68.9999 136.046Z" fill="#B8D0FC"/>
<path opacity="0.5" d="M17 19.1523C19.2091 19.1523 21 17.542 21 15.5555C21 13.5691 19.2091 11.9587 17 11.9587C14.7909 11.9587 13 13.5691 13 15.5555C13 17.542 14.7909 19.1523 17 19.1523Z" fill="#B8D0FC"/>
<path opacity="0.5" d="M17 112.667C19.2091 112.667 21 111.057 21 109.071C21 107.084 19.2091 105.474 17 105.474C14.7909 105.474 13 107.084 13 109.071C13 111.057 14.7909 112.667 17 112.667Z" fill="#B8D0FC"/>
<path opacity="0.5" d="M121 19.1523C123.209 19.1523 125 17.542 125 15.5555C125 13.5691 123.209 11.9587 121 11.9587C118.791 11.9587 117 13.5691 117 15.5555C117 17.542 118.791 19.1523 121 19.1523Z" fill="#B8D0FC"/>
<path opacity="0.5" d="M121 112.667C123.209 112.667 125 111.057 125 109.071C125 107.084 123.209 105.474 121 105.474C118.791 105.474 117 107.084 117 109.071C117 111.057 118.791 112.667 121 112.667Z" fill="#B8D0FC"/>
<path opacity="0.5" d="M17 65.9099C19.2091 65.9099 21 64.2996 21 62.3132C21 60.3268 19.2091 58.7166 17 58.7166C14.7909 58.7166 13 60.3268 13 62.3132C13 64.2996 14.7909 65.9099 17 65.9099Z" fill="#B8D0FC"/>
<path opacity="0.5" d="M17 159.425C19.2091 159.425 21 157.815 21 155.828C21 153.842 19.2091 152.231 17 152.231C14.7909 152.231 13 153.842 13 155.828C13 157.815 14.7909 159.425 17 159.425Z" fill="#B8D0FC"/>
<path opacity="0.5" d="M121 65.9099C123.209 65.9099 125 64.2996 125 62.3132C125 60.3268 123.209 58.7166 121 58.7166C118.791 58.7166 117 60.3268 117 62.3132C117 64.2996 118.791 65.9099 121 65.9099Z" fill="#B8D0FC"/>
<path opacity="0.5" d="M121 159.425C123.209 159.425 125 157.815 125 155.828C125 153.842 123.209 152.231 121 152.231C118.791 152.231 117 153.842 117 155.828C117 157.815 118.791 159.425 121 159.425Z" fill="#B8D0FC"/>
<path opacity="0.5" d="M68.9999 19.1523C71.209 19.1523 72.9999 17.542 72.9999 15.5555C72.9999 13.5691 71.209 11.9587 68.9999 11.9587C66.7907 11.9587 64.9999 13.5691 64.9999 15.5555C64.9999 17.542 66.7907 19.1523 68.9999 19.1523Z" fill="#B8D0FC"/>
<path opacity="0.5" d="M68.9999 112.667C71.209 112.667 72.9999 111.057 72.9999 109.071C72.9999 107.084 71.209 105.474 68.9999 105.474C66.7907 105.474 64.9999 107.084 64.9999 109.071C64.9999 111.057 66.7907 112.667 68.9999 112.667Z" fill="#B8D0FC"/>
<path opacity="0.5" d="M68.9999 65.9099C71.209 65.9099 72.9999 64.2996 72.9999 62.3132C72.9999 60.3268 71.209 58.7166 68.9999 58.7166C66.7907 58.7166 64.9999 60.3268 64.9999 62.3132C64.9999 64.2996 66.7907 65.9099 68.9999 65.9099Z" fill="#B8D0FC"/>
<path opacity="0.5" d="M68.9999 159.425C71.209 159.425 72.9999 157.815 72.9999 155.828C72.9999 153.842 71.209 152.231 68.9999 152.231C66.7907 152.231 64.9999 153.842 64.9999 155.828C64.9999 157.815 66.7907 159.425 68.9999 159.425Z" fill="#B8D0FC"/>
<path opacity="0.5" d="M42.9999 89.2886C45.209 89.2886 46.9999 87.6783 46.9999 85.6919C46.9999 83.7055 45.209 82.0952 42.9999 82.0952C40.7907 82.0952 38.9999 83.7055 38.9999 85.6919C38.9999 87.6783 40.7907 89.2886 42.9999 89.2886Z" fill="#B8D0FC"/>
<path opacity="0.5" d="M42.9999 42.531C45.209 42.531 46.9999 40.9207 46.9999 38.9343C46.9999 36.9479 45.209 35.3376 42.9999 35.3376C40.7907 35.3376 38.9999 36.9479 38.9999 38.9343C38.9999 40.9207 40.7907 42.531 42.9999 42.531Z" fill="#B8D0FC"/>
<path opacity="0.5" d="M42.9999 136.046C45.209 136.046 46.9999 134.436 46.9999 132.449C46.9999 130.463 45.209 128.853 42.9999 128.853C40.7907 128.853 38.9999 130.463 38.9999 132.449C38.9999 134.436 40.7907 136.046 42.9999 136.046Z" fill="#B8D0FC"/>
<path opacity="0.5" d="M95 89.2886C97.2091 89.2886 99 87.6783 99 85.6919C99 83.7055 97.2091 82.0952 95 82.0952C92.7909 82.0952 91 83.7055 91 85.6919C91 87.6783 92.7909 89.2886 95 89.2886Z" fill="#B8D0FC"/>
<path opacity="0.5" d="M95 42.531C97.2091 42.531 99 40.9207 99 38.9343C99 36.9479 97.2091 35.3376 95 35.3376C92.7909 35.3376 91 36.9479 91 38.9343C91 40.9207 92.7909 42.531 95 42.531Z" fill="#B8D0FC"/>
<path opacity="0.5" d="M95 136.046C97.2091 136.046 99 134.436 99 132.449C99 130.463 97.2091 128.853 95 128.853C92.7909 128.853 91 130.463 91 132.449C91 134.436 92.7909 136.046 95 136.046Z" fill="#B8D0FC"/>
<path opacity="0.5" d="M42.9999 19.1523C45.209 19.1523 46.9999 17.542 46.9999 15.5555C46.9999 13.5691 45.209 11.9587 42.9999 11.9587C40.7907 11.9587 38.9999 13.5691 38.9999 15.5555C38.9999 17.542 40.7907 19.1523 42.9999 19.1523Z" fill="#B8D0FC"/>
<path opacity="0.5" d="M42.9999 112.667C45.209 112.667 46.9999 111.057 46.9999 109.071C46.9999 107.084 45.209 105.474 42.9999 105.474C40.7907 105.474 38.9999 107.084 38.9999 109.071C38.9999 111.057 40.7907 112.667 42.9999 112.667Z" fill="#B8D0FC"/>
<path opacity="0.5" d="M42.9999 65.9099C45.209 65.9099 46.9999 64.2996 46.9999 62.3132C46.9999 60.3268 45.209 58.7166 42.9999 58.7166C40.7907 58.7166 38.9999 60.3268 38.9999 62.3132C38.9999 64.2996 40.7907 65.9099 42.9999 65.9099Z" fill="#B8D0FC"/>
<path opacity="0.5" d="M42.9999 159.425C45.209 159.425 46.9999 157.815 46.9999 155.828C46.9999 153.842 45.209 152.231 42.9999 152.231C40.7907 152.231 38.9999 153.842 38.9999 155.828C38.9999 157.815 40.7907 159.425 42.9999 159.425Z" fill="#B8D0FC"/>
<path opacity="0.5" d="M95 19.1523C97.2091 19.1523 99 17.542 99 15.5555C99 13.5691 97.2091 11.9587 95 11.9587C92.7909 11.9587 91 13.5691 91 15.5555C91 17.542 92.7909 19.1523 95 19.1523Z" fill="#B8D0FC"/>
<path opacity="0.5" d="M95 112.667C97.2091 112.667 99 111.057 99 109.071C99 107.084 97.2091 105.474 95 105.474C92.7909 105.474 91 107.084 91 109.071C91 111.057 92.7909 112.667 95 112.667Z" fill="#B8D0FC"/>
<path opacity="0.5" d="M95 65.9099C97.2091 65.9099 99 64.2996 99 62.3132C99 60.3268 97.2091 58.7166 95 58.7166C92.7909 58.7166 91 60.3268 91 62.3132C91 64.2996 92.7909 65.9099 95 65.9099Z" fill="#B8D0FC"/>
<path opacity="0.5" d="M95 159.425C97.2091 159.425 99 157.815 99 155.828C99 153.842 97.2091 152.231 95 152.231C92.7909 152.231 91 153.842 91 155.828C91 157.815 92.7909 159.425 95 159.425Z" fill="#B8D0FC"/>
<path opacity="0.5" d="M17 77.5994C19.2091 77.5994 21 75.989 21 74.0026C21 72.0161 19.2091 70.4058 17 70.4058C14.7909 70.4058 13 72.0161 13 74.0026C13 75.989 14.7909 77.5994 17 77.5994Z" fill="#D7B4F3"/>
<path opacity="0.5" d="M121 77.5994C123.209 77.5994 125 75.989 125 74.0026C125 72.0161 123.209 70.4058 121 70.4058C118.791 70.4058 117 72.0161 117 74.0026C117 75.989 118.791 77.5994 121 77.5994Z" fill="#D7B4F3"/>
<path opacity="0.5" d="M17 30.8418C19.2091 30.8418 21 29.2315 21 27.245C21 25.2585 19.2091 23.6482 17 23.6482C14.7909 23.6482 13 25.2585 13 27.245C13 29.2315 14.7909 30.8418 17 30.8418Z" fill="#D7B4F3"/>
<path opacity="0.5" d="M17 124.357C19.2091 124.357 21 122.746 21 120.76C21 118.774 19.2091 117.163 17 117.163C14.7909 117.163 13 118.774 13 120.76C13 122.746 14.7909 124.357 17 124.357Z" fill="#D7B4F3"/>
<path opacity="0.5" d="M121 30.8418C123.209 30.8418 125 29.2315 125 27.245C125 25.2585 123.209 23.6482 121 23.6482C118.791 23.6482 117 25.2585 117 27.245C117 29.2315 118.791 30.8418 121 30.8418Z" fill="#D7B4F3"/>
<path opacity="0.5" d="M121 124.357C123.209 124.357 125 122.746 125 120.76C125 118.774 123.209 117.163 121 117.163C118.791 117.163 117 118.774 117 120.76C117 122.746 118.791 124.357 121 124.357Z" fill="#D7B4F3"/>
<path opacity="0.5" d="M68.9999 77.5994C71.209 77.5994 72.9999 75.989 72.9999 74.0026C72.9999 72.0161 71.209 70.4058 68.9999 70.4058C66.7907 70.4058 64.9999 72.0161 64.9999 74.0026C64.9999 75.989 66.7907 77.5994 68.9999 77.5994Z" fill="#D7B4F3"/>
<path opacity="0.5" d="M68.9999 30.8418C71.209 30.8418 72.9999 29.2315 72.9999 27.245C72.9999 25.2585 71.209 23.6482 68.9999 23.6482C66.7907 23.6482 64.9999 25.2585 64.9999 27.245C64.9999 29.2315 66.7907 30.8418 68.9999 30.8418Z" fill="#D7B4F3"/>
<path opacity="0.5" d="M68.9999 124.357C71.209 124.357 72.9999 122.746 72.9999 120.76C72.9999 118.774 71.209 117.163 68.9999 117.163C66.7907 117.163 64.9999 118.774 64.9999 120.76C64.9999 122.746 66.7907 124.357 68.9999 124.357Z" fill="#D7B4F3"/>
<path opacity="0.5" d="M17 7.46289C19.2091 7.46289 21 5.8526 21 3.86621C21 1.87982 19.2091 0.269531 17 0.269531C14.7909 0.269531 13 1.87982 13 3.86621C13 5.8526 14.7909 7.46289 17 7.46289Z" fill="#D7B4F3"/>
<path opacity="0.5" d="M17 100.978C19.2091 100.978 21 99.3677 21 97.3812C21 95.3948 19.2091 93.7844 17 93.7844C14.7909 93.7844 13 95.3948 13 97.3812C13 99.3677 14.7909 100.978 17 100.978Z" fill="#D7B4F3"/>
<path opacity="0.5" d="M121 7.46289C123.209 7.46289 125 5.8526 125 3.86621C125 1.87982 123.209 0.269531 121 0.269531C118.791 0.269531 117 1.87982 117 3.86621C117 5.8526 118.791 7.46289 121 7.46289Z" fill="#D7B4F3"/>
<path opacity="0.5" d="M121 100.978C123.209 100.978 125 99.3677 125 97.3812C125 95.3948 123.209 93.7844 121 93.7844C118.791 93.7844 117 95.3948 117 97.3812C117 99.3677 118.791 100.978 121 100.978Z" fill="#D7B4F3"/>
<path opacity="0.5" d="M17 54.2205C19.2091 54.2205 21 52.6102 21 50.6238C21 48.6374 19.2091 47.0271 17 47.0271C14.7909 47.0271 13 48.6374 13 50.6238C13 52.6102 14.7909 54.2205 17 54.2205Z" fill="#D7B4F3"/>
<path opacity="0.5" d="M17 147.735C19.2091 147.735 21 146.125 21 144.139C21 142.152 19.2091 140.542 17 140.542C14.7909 140.542 13 142.152 13 144.139C13 146.125 14.7909 147.735 17 147.735Z" fill="#D7B4F3"/>
<path opacity="0.5" d="M121 54.2205C123.209 54.2205 125 52.6102 125 50.6238C125 48.6374 123.209 47.0271 121 47.0271C118.791 47.0271 117 48.6374 117 50.6238C117 52.6102 118.791 54.2205 121 54.2205Z" fill="#D7B4F3"/>
<path opacity="0.5" d="M121 147.735C123.209 147.735 125 146.125 125 144.139C125 142.152 123.209 140.542 121 140.542C118.791 140.542 117 142.152 117 144.139C117 146.125 118.791 147.735 121 147.735Z" fill="#D7B4F3"/>
<path opacity="0.5" d="M68.9999 7.46289C71.209 7.46289 72.9999 5.8526 72.9999 3.86621C72.9999 1.87982 71.209 0.269531 68.9999 0.269531C66.7907 0.269531 64.9999 1.87982 64.9999 3.86621C64.9999 5.8526 66.7907 7.46289 68.9999 7.46289Z" fill="#D7B4F3"/>
<path opacity="0.5" d="M68.9999 100.978C71.209 100.978 72.9999 99.3677 72.9999 97.3812C72.9999 95.3948 71.209 93.7844 68.9999 93.7844C66.7907 93.7844 64.9999 95.3948 64.9999 97.3812C64.9999 99.3677 66.7907 100.978 68.9999 100.978Z" fill="#D7B4F3"/>
<path opacity="0.5" d="M68.9999 54.2205C71.209 54.2205 72.9999 52.6102 72.9999 50.6238C72.9999 48.6374 71.209 47.0271 68.9999 47.0271C66.7907 47.0271 64.9999 48.6374 64.9999 50.6238C64.9999 52.6102 66.7907 54.2205 68.9999 54.2205Z" fill="#D7B4F3"/>
<path opacity="0.5" d="M68.9999 147.735C71.209 147.735 72.9999 146.125 72.9999 144.139C72.9999 142.152 71.209 140.542 68.9999 140.542C66.7907 140.542 64.9999 142.152 64.9999 144.139C64.9999 146.125 66.7907 147.735 68.9999 147.735Z" fill="#D7B4F3"/>
<path opacity="0.5" d="M42.9999 77.5994C45.209 77.5994 46.9999 75.989 46.9999 74.0026C46.9999 72.0161 45.209 70.4058 42.9999 70.4058C40.7907 70.4058 38.9999 72.0161 38.9999 74.0026C38.9999 75.989 40.7907 77.5994 42.9999 77.5994Z" fill="#D7B4F3"/>
<path opacity="0.5" d="M42.9999 30.8418C45.209 30.8418 46.9999 29.2315 46.9999 27.245C46.9999 25.2585 45.209 23.6482 42.9999 23.6482C40.7907 23.6482 38.9999 25.2585 38.9999 27.245C38.9999 29.2315 40.7907 30.8418 42.9999 30.8418Z" fill="#D7B4F3"/>
<path opacity="0.5" d="M42.9999 124.357C45.209 124.357 46.9999 122.746 46.9999 120.76C46.9999 118.774 45.209 117.163 42.9999 117.163C40.7907 117.163 38.9999 118.774 38.9999 120.76C38.9999 122.746 40.7907 124.357 42.9999 124.357Z" fill="#D7B4F3"/>
<path opacity="0.5" d="M95 77.5994C97.2091 77.5994 99 75.989 99 74.0026C99 72.0161 97.2091 70.4058 95 70.4058C92.7909 70.4058 91 72.0161 91 74.0026C91 75.989 92.7909 77.5994 95 77.5994Z" fill="#D7B4F3"/>
<path opacity="0.5" d="M95 30.8418C97.2091 30.8418 99 29.2315 99 27.245C99 25.2585 97.2091 23.6482 95 23.6482C92.7909 23.6482 91 25.2585 91 27.245C91 29.2315 92.7909 30.8418 95 30.8418Z" fill="#D7B4F3"/>
<path opacity="0.5" d="M95 124.357C97.2091 124.357 99 122.746 99 120.76C99 118.774 97.2091 117.163 95 117.163C92.7909 117.163 91 118.774 91 120.76C91 122.746 92.7909 124.357 95 124.357Z" fill="#D7B4F3"/>
<path opacity="0.5" d="M42.9999 7.46289C45.209 7.46289 46.9999 5.8526 46.9999 3.86621C46.9999 1.87982 45.209 0.269531 42.9999 0.269531C40.7907 0.269531 38.9999 1.87982 38.9999 3.86621C38.9999 5.8526 40.7907 7.46289 42.9999 7.46289Z" fill="#D7B4F3"/>
<path opacity="0.5" d="M42.9999 100.978C45.209 100.978 46.9999 99.3677 46.9999 97.3812C46.9999 95.3948 45.209 93.7844 42.9999 93.7844C40.7907 93.7844 38.9999 95.3948 38.9999 97.3812C38.9999 99.3677 40.7907 100.978 42.9999 100.978Z" fill="#D7B4F3"/>
<path opacity="0.5" d="M42.9999 54.2205C45.209 54.2205 46.9999 52.6102 46.9999 50.6238C46.9999 48.6374 45.209 47.0271 42.9999 47.0271C40.7907 47.0271 38.9999 48.6374 38.9999 50.6238C38.9999 52.6102 40.7907 54.2205 42.9999 54.2205Z" fill="#D7B4F3"/>
<path opacity="0.5" d="M42.9999 147.735C45.209 147.735 46.9999 146.125 46.9999 144.139C46.9999 142.152 45.209 140.542 42.9999 140.542C40.7907 140.542 38.9999 142.152 38.9999 144.139C38.9999 146.125 40.7907 147.735 42.9999 147.735Z" fill="#D7B4F3"/>
<path opacity="0.5" d="M94.9999 7.46289C97.2091 7.46289 98.9999 5.8526 98.9999 3.86621C98.9999 1.87982 97.2091 0.269531 94.9999 0.269531C92.7908 0.269531 90.9999 1.87982 90.9999 3.86621C90.9999 5.8526 92.7908 7.46289 94.9999 7.46289Z" fill="#D7B4F3"/>
<path opacity="0.5" d="M95 100.978C97.2091 100.978 99 99.3677 99 97.3812C99 95.3948 97.2091 93.7844 95 93.7844C92.7909 93.7844 91 95.3948 91 97.3812C91 99.3677 92.7909 100.978 95 100.978Z" fill="#D7B4F3"/>
<path opacity="0.5" d="M95 54.2205C97.2091 54.2205 99 52.6102 99 50.6238C99 48.6374 97.2091 47.0271 95 47.0271C92.7909 47.0271 91 48.6374 91 50.6238C91 52.6102 92.7909 54.2205 95 54.2205Z" fill="#D7B4F3"/>
<path opacity="0.5" d="M95 147.735C97.2091 147.735 99 146.125 99 144.139C99 142.152 97.2091 140.542 95 140.542C92.7909 140.542 91 142.152 91 144.139C91 146.125 92.7909 147.735 95 147.735Z" fill="#D7B4F3"/>
<path opacity="0.5" d="M4 89.2886C6.20914 89.2886 8 87.6783 8 85.6919C8 83.7055 6.20914 82.0952 4 82.0952C1.79086 82.0952 0 83.7055 0 85.6919C0 87.6783 1.79086 89.2886 4 89.2886Z" fill="#D7B4F3"/>
<path opacity="0.5" d="M108 89.2886C110.209 89.2886 112 87.6783 112 85.6919C112 83.7055 110.209 82.0952 108 82.0952C105.791 82.0952 104 83.7055 104 85.6919C104 87.6783 105.791 89.2886 108 89.2886Z" fill="#D7B4F3"/>
<path opacity="0.5" d="M4 42.531C6.20914 42.531 8 40.9207 8 38.9343C8 36.9479 6.20914 35.3376 4 35.3376C1.79086 35.3376 0 36.9479 0 38.9343C0 40.9207 1.79086 42.531 4 42.531Z" fill="#D7B4F3"/>
<path opacity="0.5" d="M4 136.046C6.20914 136.046 8 134.436 8 132.449C8 130.463 6.20914 128.853 4 128.853C1.79086 128.853 0 130.463 0 132.449C0 134.436 1.79086 136.046 4 136.046Z" fill="#D7B4F3"/>
<path opacity="0.5" d="M108 42.531C110.209 42.531 112 40.9207 112 38.9343C112 36.9479 110.209 35.3376 108 35.3376C105.791 35.3376 104 36.9479 104 38.9343C104 40.9207 105.791 42.531 108 42.531Z" fill="#D7B4F3"/>
<path opacity="0.5" d="M108 136.046C110.209 136.046 112 134.436 112 132.449C112 130.463 110.209 128.853 108 128.853C105.791 128.853 104 130.463 104 132.449C104 134.436 105.791 136.046 108 136.046Z" fill="#D7B4F3"/>
<path opacity="0.5" d="M55.9999 89.2886C58.209 89.2886 59.9999 87.6783 59.9999 85.6919C59.9999 83.7055 58.209 82.0952 55.9999 82.0952C53.7907 82.0952 51.9999 83.7055 51.9999 85.6919C51.9999 87.6783 53.7907 89.2886 55.9999 89.2886Z" fill="#D7B4F3"/>
<path opacity="0.5" d="M55.9999 42.531C58.209 42.531 59.9999 40.9207 59.9999 38.9343C59.9999 36.9479 58.209 35.3376 55.9999 35.3376C53.7907 35.3376 51.9999 36.9479 51.9999 38.9343C51.9999 40.9207 53.7907 42.531 55.9999 42.531Z" fill="#D7B4F3"/>
<path opacity="0.5" d="M55.9999 136.046C58.209 136.046 59.9999 134.436 59.9999 132.449C59.9999 130.463 58.209 128.853 55.9999 128.853C53.7907 128.853 51.9999 130.463 51.9999 132.449C51.9999 134.436 53.7907 136.046 55.9999 136.046Z" fill="#D7B4F3"/>
<path opacity="0.5" d="M4 19.1523C6.20914 19.1523 8 17.542 8 15.5555C8 13.5691 6.20914 11.9587 4 11.9587C1.79086 11.9587 0 13.5691 0 15.5555C0 17.542 1.79086 19.1523 4 19.1523Z" fill="#D7B4F3"/>
<path opacity="0.5" d="M4 112.667C6.20914 112.667 8 111.057 8 109.071C8 107.084 6.20914 105.474 4 105.474C1.79086 105.474 0 107.084 0 109.071C0 111.057 1.79086 112.667 4 112.667Z" fill="#D7B4F3"/>
<path opacity="0.5" d="M108 19.1523C110.209 19.1523 112 17.542 112 15.5555C112 13.5691 110.209 11.9587 108 11.9587C105.791 11.9587 104 13.5691 104 15.5555C104 17.542 105.791 19.1523 108 19.1523Z" fill="#D7B4F3"/>
<path opacity="0.5" d="M108 112.667C110.209 112.667 112 111.057 112 109.071C112 107.084 110.209 105.474 108 105.474C105.791 105.474 104 107.084 104 109.071C104 111.057 105.791 112.667 108 112.667Z" fill="#D7B4F3"/>
<path opacity="0.5" d="M4 65.9099C6.20914 65.9099 8 64.2996 8 62.3132C8 60.3268 6.20914 58.7166 4 58.7166C1.79086 58.7166 0 60.3268 0 62.3132C0 64.2996 1.79086 65.9099 4 65.9099Z" fill="#D7B4F3"/>
<path opacity="0.5" d="M4 159.425C6.20914 159.425 8 157.815 8 155.828C8 153.842 6.20914 152.231 4 152.231C1.79086 152.231 0 153.842 0 155.828C0 157.815 1.79086 159.425 4 159.425Z" fill="#D7B4F3"/>
<path opacity="0.5" d="M108 65.9099C110.209 65.9099 112 64.2996 112 62.3132C112 60.3268 110.209 58.7166 108 58.7166C105.791 58.7166 104 60.3268 104 62.3132C104 64.2996 105.791 65.9099 108 65.9099Z" fill="#D7B4F3"/>
<path opacity="0.5" d="M108 159.425C110.209 159.425 112 157.815 112 155.828C112 153.842 110.209 152.231 108 152.231C105.791 152.231 104 153.842 104 155.828C104 157.815 105.791 159.425 108 159.425Z" fill="#D7B4F3"/>
<path opacity="0.5" d="M55.9999 19.1523C58.209 19.1523 59.9999 17.542 59.9999 15.5555C59.9999 13.5691 58.209 11.9587 55.9999 11.9587C53.7907 11.9587 51.9999 13.5691 51.9999 15.5555C51.9999 17.542 53.7907 19.1523 55.9999 19.1523Z" fill="#D7B4F3"/>
<path opacity="0.5" d="M55.9999 112.667C58.209 112.667 59.9999 111.057 59.9999 109.071C59.9999 107.084 58.209 105.474 55.9999 105.474C53.7907 105.474 51.9999 107.084 51.9999 109.071C51.9999 111.057 53.7907 112.667 55.9999 112.667Z" fill="#D7B4F3"/>
<path opacity="0.5" d="M55.9999 65.9099C58.209 65.9099 59.9999 64.2996 59.9999 62.3132C59.9999 60.3268 58.209 58.7166 55.9999 58.7166C53.7907 58.7166 51.9999 60.3268 51.9999 62.3132C51.9999 64.2996 53.7907 65.9099 55.9999 65.9099Z" fill="#D7B4F3"/>
<path opacity="0.5" d="M55.9999 159.425C58.209 159.425 59.9999 157.815 59.9999 155.828C59.9999 153.842 58.209 152.231 55.9999 152.231C53.7907 152.231 51.9999 153.842 51.9999 155.828C51.9999 157.815 53.7907 159.425 55.9999 159.425Z" fill="#D7B4F3"/>
<path opacity="0.5" d="M30 89.2886C32.2091 89.2886 34 87.6783 34 85.6919C34 83.7055 32.2091 82.0952 30 82.0952C27.7909 82.0952 26 83.7055 26 85.6919C26 87.6783 27.7909 89.2886 30 89.2886Z" fill="#D7B4F3"/>
<path opacity="0.5" d="M134 89.2886C136.209 89.2886 138 87.6783 138 85.6919C138 83.7055 136.209 82.0952 134 82.0952C131.791 82.0952 130 83.7055 130 85.6919C130 87.6783 131.791 89.2886 134 89.2886Z" fill="#D7B4F3"/>
<path opacity="0.5" d="M30 42.531C32.2091 42.531 34 40.9207 34 38.9343C34 36.9479 32.2091 35.3376 30 35.3376C27.7909 35.3376 26 36.9479 26 38.9343C26 40.9207 27.7909 42.531 30 42.531Z" fill="#D7B4F3"/>
<path opacity="0.5" d="M30 136.046C32.2091 136.046 34 134.436 34 132.449C34 130.463 32.2091 128.853 30 128.853C27.7909 128.853 26 130.463 26 132.449C26 134.436 27.7909 136.046 30 136.046Z" fill="#D7B4F3"/>
<path opacity="0.5" d="M134 42.531C136.209 42.531 138 40.9207 138 38.9343C138 36.9479 136.209 35.3376 134 35.3376C131.791 35.3376 130 36.9479 130 38.9343C130 40.9207 131.791 42.531 134 42.531Z" fill="#D7B4F3"/>
<path opacity="0.5" d="M134 136.046C136.209 136.046 138 134.436 138 132.449C138 130.463 136.209 128.853 134 128.853C131.791 128.853 130 130.463 130 132.449C130 134.436 131.791 136.046 134 136.046Z" fill="#D7B4F3"/>
<path opacity="0.5" d="M81.9998 89.2886C84.2089 89.2886 85.9998 87.6783 85.9998 85.6919C85.9998 83.7055 84.2089 82.0952 81.9998 82.0952C79.7906 82.0952 77.9998 83.7055 77.9998 85.6919C77.9998 87.6783 79.7906 89.2886 81.9998 89.2886Z" fill="#D7B4F3"/>
<path opacity="0.5" d="M81.9998 42.531C84.2089 42.531 85.9998 40.9207 85.9998 38.9343C85.9998 36.9479 84.2089 35.3376 81.9998 35.3376C79.7906 35.3376 77.9998 36.9479 77.9998 38.9343C77.9998 40.9207 79.7906 42.531 81.9998 42.531Z" fill="#D7B4F3"/>
<path opacity="0.5" d="M81.9998 136.046C84.2089 136.046 85.9998 134.436 85.9998 132.449C85.9998 130.463 84.2089 128.853 81.9998 128.853C79.7906 128.853 77.9998 130.463 77.9998 132.449C77.9998 134.436 79.7906 136.046 81.9998 136.046Z" fill="#D7B4F3"/>
<path opacity="0.5" d="M30 19.1523C32.2091 19.1523 34 17.542 34 15.5555C34 13.5691 32.2091 11.9587 30 11.9587C27.7909 11.9587 26 13.5691 26 15.5555C26 17.542 27.7909 19.1523 30 19.1523Z" fill="#D7B4F3"/>
<path opacity="0.5" d="M30 112.667C32.2091 112.667 34 111.057 34 109.071C34 107.084 32.2091 105.474 30 105.474C27.7909 105.474 26 107.084 26 109.071C26 111.057 27.7909 112.667 30 112.667Z" fill="#D7B4F3"/>
<path opacity="0.5" d="M134 19.1523C136.209 19.1523 138 17.542 138 15.5555C138 13.5691 136.209 11.9587 134 11.9587C131.791 11.9587 130 13.5691 130 15.5555C130 17.542 131.791 19.1523 134 19.1523Z" fill="#D7B4F3"/>
<path opacity="0.5" d="M134 112.667C136.209 112.667 138 111.057 138 109.071C138 107.084 136.209 105.474 134 105.474C131.791 105.474 130 107.084 130 109.071C130 111.057 131.791 112.667 134 112.667Z" fill="#D7B4F3"/>
<path opacity="0.5" d="M30 65.9099C32.2091 65.9099 34 64.2996 34 62.3132C34 60.3268 32.2091 58.7166 30 58.7166C27.7909 58.7166 26 60.3268 26 62.3132C26 64.2996 27.7909 65.9099 30 65.9099Z" fill="#D7B4F3"/>
<path opacity="0.5" d="M30 159.425C32.2091 159.425 34 157.815 34 155.828C34 153.842 32.2091 152.231 30 152.231C27.7909 152.231 26 153.842 26 155.828C26 157.815 27.7909 159.425 30 159.425Z" fill="#D7B4F3"/>
<path opacity="0.5" d="M134 65.9099C136.209 65.9099 138 64.2996 138 62.3132C138 60.3268 136.209 58.7166 134 58.7166C131.791 58.7166 130 60.3268 130 62.3132C130 64.2996 131.791 65.9099 134 65.9099Z" fill="#D7B4F3"/>
<path opacity="0.5" d="M134 159.425C136.209 159.425 138 157.815 138 155.828C138 153.842 136.209 152.231 134 152.231C131.791 152.231 130 153.842 130 155.828C130 157.815 131.791 159.425 134 159.425Z" fill="#D7B4F3"/>
<path opacity="0.5" d="M81.9998 19.1523C84.2089 19.1523 85.9998 17.542 85.9998 15.5555C85.9998 13.5691 84.2089 11.9587 81.9998 11.9587C79.7906 11.9587 77.9998 13.5691 77.9998 15.5555C77.9998 17.542 79.7906 19.1523 81.9998 19.1523Z" fill="#D7B4F3"/>
<path opacity="0.5" d="M81.9998 112.667C84.2089 112.667 85.9998 111.057 85.9998 109.071C85.9998 107.084 84.2089 105.474 81.9998 105.474C79.7906 105.474 77.9998 107.084 77.9998 109.071C77.9998 111.057 79.7906 112.667 81.9998 112.667Z" fill="#D7B4F3"/>
<path opacity="0.5" d="M81.9998 65.9099C84.2089 65.9099 85.9998 64.2996 85.9998 62.3132C85.9998 60.3268 84.2089 58.7166 81.9998 58.7166C79.7906 58.7166 77.9998 60.3268 77.9998 62.3132C77.9998 64.2996 79.7906 65.9099 81.9998 65.9099Z" fill="#D7B4F3"/>
<path opacity="0.5" d="M81.9998 159.425C84.2089 159.425 85.9998 157.815 85.9998 155.828C85.9998 153.842 84.2089 152.231 81.9998 152.231C79.7906 152.231 77.9998 153.842 77.9998 155.828C77.9998 157.815 79.7906 159.425 81.9998 159.425Z" fill="#D7B4F3"/>
</g>
</svg>
