<svg class="footer_logo_svg" xmlns="http://www.w3.org/2000/svg" width="165.605" height="87.389" viewBox="0 0 165.605 87.389">
  <g id="Group_163663" data-name="Group 163663" transform="translate(0 -5)">
    <g id="Group_3078" data-name="Group 3078" transform="translate(0 5)">
      <g id="Group_3077" data-name="Group 3077">
        <path id="Path_2741" data-name="Path 2741" d="M2769.023,222.987h24.306v6.783h-24.306Zm8.252,3.335h7.687v36.233h-7.687Z" transform="translate(-2769.023 -222.535)" fill="#fff"/>
        <path id="Path_2742" data-name="Path 2742" d="M2803.977,222.987h7.575v39.568h-7.575Zm5.37,0h14.132v6.783h-14.132Zm0,15.94h12.605v6.839h-12.605Zm0,16.9h14.415v6.726h-14.415Z" transform="translate(-2776.196 -222.535)" fill="#fff"/>
        <path id="Path_2743" data-name="Path 2743" d="M2832.62,235.5a22.737,22.737,0,0,1,1.639-5.624,13.788,13.788,0,0,1,2.77-4.1,11.14,11.14,0,0,1,3.816-2.516,12.824,12.824,0,0,1,4.748-.847,12.553,12.553,0,0,1,6.443,1.555,11.165,11.165,0,0,1,4.268,4.691,24.29,24.29,0,0,1,2.232,7.943l-7.518,1.47a21.8,21.8,0,0,0-.961-5.059,6.54,6.54,0,0,0-1.809-2.911,3.973,3.973,0,0,0-2.656-.961,4.13,4.13,0,0,0-2.007.509,4.244,4.244,0,0,0-1.583,1.583,10.842,10.842,0,0,0-1.1,2.685,22.7,22.7,0,0,0-.678,3.786,48.079,48.079,0,0,0-.227,4.946q0,2.771.2,4.975a21.273,21.273,0,0,0,.65,3.816,9.7,9.7,0,0,0,1.13,2.656,4.689,4.689,0,0,0,1.554,1.554,4.032,4.032,0,0,0,2.063.51,4.209,4.209,0,0,0,2.826-.961,6.4,6.4,0,0,0,1.78-3.025,25.137,25.137,0,0,0,.932-5.172l7.631,1.414a25.916,25.916,0,0,1-2.4,8.167,11.446,11.446,0,0,1-4.324,4.748,12.545,12.545,0,0,1-6.443,1.555,13.36,13.36,0,0,1-4.07-.594,11.518,11.518,0,0,1-3.391-1.724,10.624,10.624,0,0,1-2.628-2.855,18.937,18.937,0,0,1-1.893-3.985,25.173,25.173,0,0,1-1.159-5.03,46.063,46.063,0,0,1-.367-6.048A43.318,43.318,0,0,1,2832.62,235.5Z" transform="translate(-2781.962 -222.418)" fill="#fff"/>
        <path id="Path_2744" data-name="Path 2744" d="M2871.219,222.987h7.687v39.568h-7.687Zm4.917,15.884h14.188V245.6h-14.188Zm12.323-15.884h7.688v39.568h-7.687Z" transform="translate(-2789.993 -222.535)" fill="#fff"/>
        <path id="Path_2745" data-name="Path 2745" d="M2927.971,222.987h7.687v39.568h-7.687Z" transform="translate(-2801.639 -222.535)" fill="#fff"/>
        <path id="Path_2746" data-name="Path 2746" d="M2945.734,222.987h7.01v39.568h-7.01Zm3.222,4.522,1.639-4.522h2.939l14.131,35.045-2.317,4.522h-2.2Zm14.922-4.522h7.009v39.568h-7.009Z" transform="translate(-2805.283 -222.535)" fill="#fff"/>
      </g>
    </g>
    <g id="Group_3084" data-name="Group 3084" transform="translate(1.918 51.917)">
      <g id="Group_3080" data-name="Group 3080" transform="translate(65.651)">
        <g id="Group_3079" data-name="Group 3079">
          <path id="Path_2747" data-name="Path 2747" d="M2854.037,287.938h24.306v6.784h-24.306Zm8.252,3.336h7.688v36.233h-7.687Z" transform="translate(-2854.037 -287.487)" fill="#fff"/>
          <path id="Path_2748" data-name="Path 2748" d="M2888.99,287.938h7.688v39.569h-7.688Z" transform="translate(-2861.209 -287.487)" fill="#fff"/>
          <path id="Path_2749" data-name="Path 2749" d="M2913.959,327.079a10.493,10.493,0,0,1-3.816-2.373,13.214,13.214,0,0,1-2.77-3.986,21.815,21.815,0,0,1-1.639-5.68,51.265,51.265,0,0,1,0-14.81,22.278,22.278,0,0,1,1.639-5.709,13.127,13.127,0,0,1,2.77-4.014,10.5,10.5,0,0,1,3.816-2.373,15.065,15.065,0,0,1,9.468,0,10.55,10.55,0,0,1,3.787,2.373,13.531,13.531,0,0,1,2.8,4.014,21.558,21.558,0,0,1,1.668,5.681,51.283,51.283,0,0,1,0,14.809,21.969,21.969,0,0,1-1.668,5.709,13.036,13.036,0,0,1-2.8,4.014,10.72,10.72,0,0,1-3.787,2.345,15.064,15.064,0,0,1-9.468,0Zm6.783-6.5a4.7,4.7,0,0,0,1.554-1.554,9.315,9.315,0,0,0,1.074-2.628,27.659,27.659,0,0,0,.678-3.787,43.573,43.573,0,0,0,.255-5,44.172,44.172,0,0,0-.255-5.059,26.74,26.74,0,0,0-.678-3.759,9.354,9.354,0,0,0-1.074-2.6,4.71,4.71,0,0,0-1.554-1.554,4.022,4.022,0,0,0-2.091-.537,3.807,3.807,0,0,0-1.979.537,4.96,4.96,0,0,0-1.583,1.554,8.752,8.752,0,0,0-1.1,2.628,25.193,25.193,0,0,0-.65,3.787,48.937,48.937,0,0,0-.226,5,49.749,49.749,0,0,0,.226,5.03,24.339,24.339,0,0,0,.65,3.788,9.192,9.192,0,0,0,1.1,2.628,4.6,4.6,0,0,0,1.583,1.555,4.224,4.224,0,0,0,4.07-.029Z" transform="translate(-2864.533 -287.37)" fill="#fff"/>
          <path id="Path_2750" data-name="Path 2750" d="M2945.734,287.938h7.01v39.569h-7.01Zm3.222,4.522,1.639-4.522h2.939l14.131,35.046-2.317,4.522h-2.2Zm14.922-4.522h7.009v39.569h-7.009Z" transform="translate(-2872.852 -287.487)" fill="#fff"/>
        </g>
      </g>
      <g id="Group_3082" data-name="Group 3082" transform="translate(0 0.451)">
        <g id="Group_3081" data-name="Group 3081">
          <path id="Path_2751" data-name="Path 2751" d="M2771.436,287.938h7.235v39.569h-7.235Zm13.792,31.768-9.327-26.284-2.883-5.483h7.236l8.648,24.871h-1.3l8.592-24.871h6.784l-2.883,5.54-9.271,26.228Zm12.153-31.768h7.235v39.569h-7.235Z" transform="translate(-2771.436 -287.938)" fill="#fff"/>
        </g>
      </g>
      <g id="Group_3083" data-name="Group 3083" transform="translate(37.036 0.452)">
        <path id="Path_2752" data-name="Path 2752" d="M2836.4,288.249a9.286,9.286,0,0,1-1.074,2.629,4.713,4.713,0,0,1-1.554,1.554,4.014,4.014,0,0,1-2.092.537,3.964,3.964,0,0,1-1.979-.509,4.6,4.6,0,0,1-1.583-1.555,9.218,9.218,0,0,1-1.1-2.628c-.029-.107-.054-.227-.081-.339h-7.972a20.632,20.632,0,0,0,1.439,4.635,13.2,13.2,0,0,0,2.77,3.985,10.477,10.477,0,0,0,3.816,2.374,15.079,15.079,0,0,0,9.468,0,10.734,10.734,0,0,0,3.787-2.346,13.028,13.028,0,0,0,2.8-4.013,20.82,20.82,0,0,0,1.46-4.635h-8.027C2836.445,288.041,2836.422,288.15,2836.4,288.249Z" transform="translate(-2818.223 -287.939)" fill="#fff"/>
        <path id="Path_2753" data-name="Path 2753" d="M2842.848,313.345a13.512,13.512,0,0,0-2.8-4.013,10.552,10.552,0,0,0-3.787-2.374,15.066,15.066,0,0,0-9.468,0,10.484,10.484,0,0,0-3.816,2.374,13.11,13.11,0,0,0-2.77,4.013,22.278,22.278,0,0,0-1.639,5.709,46.189,46.189,0,0,0-.537,7.377c0,1.718.078,3.317.218,4.821h7.9c-.138-1.42-.208-3.023-.208-4.821a48.878,48.878,0,0,1,.226-5,25.194,25.194,0,0,1,.65-3.786,8.763,8.763,0,0,1,1.1-2.629,4.964,4.964,0,0,1,1.583-1.554,3.806,3.806,0,0,1,1.978-.537,4.025,4.025,0,0,1,2.092.537,4.716,4.716,0,0,1,1.554,1.554,9.3,9.3,0,0,1,1.073,2.6,26.641,26.641,0,0,1,.679,3.759,49.844,49.844,0,0,1,.017,9.88h7.931c.141-1.5.219-3.1.219-4.821a46.15,46.15,0,0,0-.537-7.4A21.549,21.549,0,0,0,2842.848,313.345Z" transform="translate(-2818.033 -291.685)" fill="#fff"/>
      </g>
    </g>
  </g>
</svg>
