<svg id="logo" xmlns="http://www.w3.org/2000/svg" width="228.271" height="26.53" viewBox="0 0 228.271 26.53">
  <g id="Group_3078" data-name="Group 3078">
    <g id="Group_3077" data-name="Group 3077">
      <path id="Path_2741" data-name="Path 2741" d="M2769.023,222.987h15.933v4.446h-15.933Zm5.41,2.186h5.039v23.751h-5.039Z" transform="translate(-2769.023 -222.691)" fill="#fff"/>
      <path id="Path_2742" data-name="Path 2742" d="M2803.977,222.987h4.965v25.937h-4.965Zm3.52,0h9.263v4.446H2807.5Zm0,10.449h8.263v4.483H2807.5Zm0,11.079h9.449v4.409H2807.5Z" transform="translate(-2785.766 -222.691)" fill="#fff"/>
      <path id="Path_2743" data-name="Path 2743" d="M2832.435,231a14.905,14.905,0,0,1,1.074-3.687,9.042,9.042,0,0,1,1.815-2.687,7.3,7.3,0,0,1,2.5-1.649,8.408,8.408,0,0,1,3.113-.555,8.228,8.228,0,0,1,4.224,1.019,7.316,7.316,0,0,1,2.8,3.075,15.92,15.92,0,0,1,1.464,5.206l-4.928.963a14.3,14.3,0,0,0-.63-3.316,4.288,4.288,0,0,0-1.186-1.908,2.6,2.6,0,0,0-1.741-.63,2.707,2.707,0,0,0-1.315.333,2.781,2.781,0,0,0-1.038,1.038,7.107,7.107,0,0,0-.723,1.76,14.89,14.89,0,0,0-.444,2.482,31.523,31.523,0,0,0-.148,3.242q0,1.816.129,3.261a13.965,13.965,0,0,0,.426,2.5,6.359,6.359,0,0,0,.741,1.741,3.072,3.072,0,0,0,1.019,1.019,2.643,2.643,0,0,0,1.353.334,2.759,2.759,0,0,0,1.853-.63,4.191,4.191,0,0,0,1.167-1.983,16.491,16.491,0,0,0,.611-3.39l5,.927a16.99,16.99,0,0,1-1.575,5.354,7.5,7.5,0,0,1-2.835,3.113,8.223,8.223,0,0,1-4.224,1.019,8.758,8.758,0,0,1-2.668-.389,7.545,7.545,0,0,1-2.223-1.13,6.965,6.965,0,0,1-1.723-1.871,12.44,12.44,0,0,1-1.241-2.612,16.491,16.491,0,0,1-.76-3.3,30.228,30.228,0,0,1-.241-3.965A28.377,28.377,0,0,1,2832.435,231Z" transform="translate(-2799.228 -222.418)" fill="#fff"/>
      <path id="Path_2744" data-name="Path 2744" d="M2871.219,222.987h5.039v25.937h-5.039Zm3.223,10.412h9.3v4.409h-9.3Zm8.078-10.412h5.039v25.937h-5.039Z" transform="translate(-2817.974 -222.691)" fill="#fff"/>
      <path id="Path_2745" data-name="Path 2745" d="M2927.97,222.987h5.039v25.937h-5.039Z" transform="translate(-2845.157 -222.691)" fill="#fff"/>
      <path id="Path_2746" data-name="Path 2746" d="M2945.734,222.987h4.595v25.937h-4.595Zm2.112,2.965,1.075-2.965h1.927l9.263,22.973-1.519,2.965h-1.445Zm9.782-2.965h4.595v25.937h-4.595Z" transform="translate(-2853.666 -222.691)" fill="#fff"/>
    </g>
  </g>
  <g id="Group_3084" data-name="Group 3084" transform="translate(120.971)">
    <g id="Group_3080" data-name="Group 3080" transform="translate(43.035)">
      <g id="Group_3079" data-name="Group 3079">
        <path id="Path_2747" data-name="Path 2747" d="M2854.036,287.938h15.933v4.447h-15.933Zm5.409,2.187h5.039v23.751h-5.039Z" transform="translate(-2854.036 -287.642)" fill="#fff"/>
        <path id="Path_2748" data-name="Path 2748" d="M2888.99,287.938h5.04v25.938h-5.04Z" transform="translate(-2870.779 -287.642)" fill="#fff"/>
        <path id="Path_2749" data-name="Path 2749" d="M2910.94,313.4a6.879,6.879,0,0,1-2.5-1.556,8.663,8.663,0,0,1-1.815-2.613,14.3,14.3,0,0,1-1.074-3.724,33.592,33.592,0,0,1,0-9.708,14.6,14.6,0,0,1,1.074-3.742,8.606,8.606,0,0,1,1.815-2.631,6.88,6.88,0,0,1,2.5-1.556,9.876,9.876,0,0,1,6.206,0,6.919,6.919,0,0,1,2.483,1.556,8.879,8.879,0,0,1,1.834,2.631,14.14,14.14,0,0,1,1.093,3.724,33.635,33.635,0,0,1,0,9.707,14.411,14.411,0,0,1-1.093,3.742,8.553,8.553,0,0,1-1.834,2.631,7.03,7.03,0,0,1-2.483,1.537,9.875,9.875,0,0,1-6.206,0Zm4.446-4.261a3.082,3.082,0,0,0,1.019-1.019,6.105,6.105,0,0,0,.7-1.723,18.112,18.112,0,0,0,.444-2.483,28.614,28.614,0,0,0,.167-3.279,29.006,29.006,0,0,0-.167-3.316,17.511,17.511,0,0,0-.444-2.464,6.131,6.131,0,0,0-.7-1.7,3.086,3.086,0,0,0-1.019-1.019,2.636,2.636,0,0,0-1.371-.352,2.5,2.5,0,0,0-1.3.352,3.252,3.252,0,0,0-1.037,1.019,5.735,5.735,0,0,0-.722,1.723,16.523,16.523,0,0,0-.426,2.483,32.019,32.019,0,0,0-.148,3.279,32.55,32.55,0,0,0,.148,3.3,15.962,15.962,0,0,0,.426,2.483,6.022,6.022,0,0,0,.722,1.722,3.015,3.015,0,0,0,1.037,1.02,2.769,2.769,0,0,0,2.668-.019Z" transform="translate(-2878.541 -287.37)" fill="#fff"/>
        <path id="Path_2750" data-name="Path 2750" d="M2945.734,287.938h4.595v25.938h-4.595Zm2.112,2.965,1.075-2.965h1.927l9.263,22.973-1.519,2.965h-1.445Zm9.782-2.965h4.595v25.938h-4.595Z" transform="translate(-2897.958 -287.642)" fill="#fff"/>
      </g>
    </g>
    <g id="Group_3082" data-name="Group 3082" transform="translate(0 0.296)">
      <g id="Group_3081" data-name="Group 3081">
        <path id="Path_2751" data-name="Path 2751" d="M2771.436,287.938h4.742v25.938h-4.742Zm9.041,20.824-6.114-17.23-1.89-3.594h4.743l5.669,16.3h-.852l5.632-16.3h4.447l-1.89,3.631-6.077,17.193Zm7.966-20.824h4.742v25.938h-4.742Z" transform="translate(-2771.436 -287.938)" fill="#fff"/>
      </g>
    </g>
    <g id="Group_3083" data-name="Group 3083" transform="translate(24.277 0.296)">
      <path id="Path_2752" data-name="Path 2752" d="M2830.39,288.142a6.088,6.088,0,0,1-.7,1.724,3.089,3.089,0,0,1-1.019,1.019,2.631,2.631,0,0,1-1.371.352,2.6,2.6,0,0,1-1.3-.333,3.014,3.014,0,0,1-1.038-1.019,6.047,6.047,0,0,1-.722-1.723c-.019-.07-.035-.148-.053-.222h-5.226a13.523,13.523,0,0,0,.944,3.038,8.646,8.646,0,0,0,1.816,2.612,6.869,6.869,0,0,0,2.5,1.556,9.884,9.884,0,0,0,6.206,0,7.036,7.036,0,0,0,2.483-1.538,8.539,8.539,0,0,0,1.834-2.631,13.654,13.654,0,0,0,.957-3.038h-5.262C2830.422,288.006,2830.407,288.077,2830.39,288.142Z" transform="translate(-2818.477 -287.939)" fill="#fff"/>
      <path id="Path_2753" data-name="Path 2753" d="M2834.3,310.882a8.856,8.856,0,0,0-1.834-2.631,6.917,6.917,0,0,0-2.482-1.556,9.876,9.876,0,0,0-6.207,0,6.871,6.871,0,0,0-2.5,1.556,8.592,8.592,0,0,0-1.815,2.631,14.6,14.6,0,0,0-1.074,3.742,30.258,30.258,0,0,0-.352,4.836c0,1.126.051,2.174.143,3.16h5.181c-.09-.931-.136-1.981-.136-3.16a32.1,32.1,0,0,1,.148-3.279,16.5,16.5,0,0,1,.426-2.482,5.738,5.738,0,0,1,.723-1.724,3.257,3.257,0,0,1,1.037-1.019,2.5,2.5,0,0,1,1.3-.352,2.637,2.637,0,0,1,1.371.352,3.093,3.093,0,0,1,1.019,1.019,6.105,6.105,0,0,1,.7,1.7,17.424,17.424,0,0,1,.445,2.464,32.655,32.655,0,0,1,.011,6.477h5.2c.092-.984.144-2.031.144-3.16a30.262,30.262,0,0,0-.352-4.854A14.132,14.132,0,0,0,2834.3,310.882Z" transform="translate(-2818.033 -296.683)" fill="#fff"/>
    </g>
  </g>
</svg>
